<?xml version="1.0" encoding="UTF-8"?>
<!DOCTYPE svg PUBLIC "-//W3C//DTD SVG 1.1//EN" "http://www.w3.org/Graphics/SVG/1.1/DTD/svg11.dtd">
<!-- Creator: CorelDRAW X7 -->
<svg xmlns="http://www.w3.org/2000/svg" xml:space="preserve" width="8.26772in" height="11.6929in" version="1.1" style="shape-rendering:geometricPrecision; text-rendering:geometricPrecision; image-rendering:optimizeQuality; fill-rule:evenodd; clip-rule:evenodd"
viewBox="0 0 8268 11693"
 xmlns:xlink="http://www.w3.org/1999/xlink">
 <defs>
  <style type="text/css">
   <![CDATA[
    .fil4 {fill:#AD2D2E}
    .fil2 {fill:#AE0616}
    .fil0 {fill:#E6B161}
    .fil3 {fill:#F3DCBB}
    .fil1 {fill:white}
   ]]>
  </style>
 </defs>
 <g id="Layer_x0020_1">
  <metadata id="CorelCorpID_0Corel-Layer"/>
  <g id="_328833160">
   <path class="fil0" d="M1777 4910c-23,0 -55,-33 -71,-46l-225 -176c-51,-43 -71,-43 -72,-101 0,-74 18,-136 24,-206 47,2 295,245 369,291 1,22 -20,226 -25,238zm1033 -491c-3,-30 -5,-38 10,-58 14,-19 18,-26 46,-22 2,20 -20,70 -26,93 -12,-5 -2,-2 -14,-7 -9,-4 -7,-1 -16,-6zm-1209 -228c-9,-33 24,-42 35,-59 21,-31 54,-14 64,4l-99 55zm1024 62c42,-24 217,-129 259,-135 1,10 4,26 17,14 8,-8 4,-5 -5,-24 14,-5 28,-12 48,-12 3,44 -7,102 -15,145 -8,42 -10,93 -41,107 0,-25 10,-44 9,-63 -61,-42 -113,-32 -161,14 -48,47 -49,76 -75,147 -17,47 -15,35 -52,59 -168,108 -465,287 -624,367 -24,12 -50,26 -74,36 -20,9 -61,33 -80,18 -18,-25 15,-224 18,-268 23,-8 45,-22 66,-32l65 -34c41,-21 88,-45 129,-67 172,-93 346,-176 516,-272zm-1175 83c71,-45 193,-110 274,-161 66,-40 52,-33 74,-27 40,11 105,-8 132,-43 11,-13 15,-38 24,-48l190 -101c26,-15 13,-16 49,-19 45,-4 173,-68 199,-93 19,-20 9,-19 41,-33 84,-37 94,-56 154,-18 62,40 305,210 315,258l-611 331c-18,9 -27,16 -47,26l-282 150c-146,83 -131,81 -189,36l-285 -223c-28,-21 -31,-16 -38,-35zm372 -281c38,-2 62,1 74,-26l11 -21 7 36c-48,27 -59,45 -89,35l-3 -24zm11 -18c4,-16 -5,-3 10,-16 9,-8 32,-28 39,-14 9,16 -25,35 -49,30zm65 -53c-21,-3 -60,24 -75,37 -13,12 -13,22 -17,42 -4,23 -5,37 20,36 16,-1 68,-27 81,-36 30,-20 5,-66 -9,-79zm-14 -6c17,-5 13,-4 26,6 24,17 39,15 19,78 -13,39 -34,62 -80,68 -31,4 -39,-3 -51,-23 -12,-21 3,-39 8,-59 9,-40 35,-58 78,-70zm195 -130c7,-2 14,-4 23,-4 7,0 8,0 14,1 8,2 6,2 9,4 0,0 8,-7 0,8 3,16 1,5 -3,8 0,30 9,30 9,45 0,16 -12,23 -25,26 -2,6 6,4 -7,5 2,7 2,4 -6,2 2,7 2,5 -5,3 2,7 3,5 -4,3 0,7 6,4 -6,7 -7,7 -17,11 -26,13 -4,6 -1,4 -9,8 -10,5 -3,1 -9,2 -3,3 7,4 -9,3 -2,5 6,6 -9,3 -4,4 2,1 -6,5 -5,3 -1,1 -7,2 -11,-9 -11,-8 -14,-24 -6,2 -4,3 -3,-4 -9,-3 -4,4 -5,-10 -8,-5 -5,0 -4,-11 -5,-2 -3,6 -5,-8l1 -7c-3,-4 -5,0 -4,-14 2,-19 -1,-6 5,-10 6,-9 8,-7 15,-7 2,25 -30,50 24,49 -7,-21 1,0 -5,-10 -8,-13 -6,-1 -12,-19 13,-10 17,-7 34,-8 9,-1 20,-3 28,-6 23,-7 27,-20 21,-49l-28 6c10,10 15,5 14,25 -18,9 -34,19 -59,13l0 -10c2,-10 8,-17 19,-24 15,-10 37,-16 54,-16zm215 -123c26,-4 73,-9 77,17 2,7 5,40 5,47 2,17 -28,46 -42,54 -52,28 -27,34 -94,56 -40,13 -41,16 -58,-23 -9,-19 -24,-54 -14,-76 5,-12 14,-16 27,-23 44,-23 28,-40 99,-52zm158 1995c-5,-27 -5,-67 -18,-88 -23,-37 -65,-286 -87,-350 -19,-55 -34,-109 -52,-165 -54,-170 -28,-136 66,-206 56,-43 67,-5 172,-42 26,-10 65,-17 39,-44 -11,2 -40,21 -80,26 -47,5 -61,3 -78,-29 -1,1 -2,3 -3,3l-9 17c-22,39 -234,122 -261,96 -7,-7 1,-45 1,-57 1,-20 3,-35 5,-54 21,-14 54,-28 77,-41l151 -83c18,-10 55,-34 74,-39 -5,22 -37,72 -7,87 13,-6 11,-22 17,-37 6,-16 11,-21 20,-33 44,-64 44,-62 111,-103 46,-27 36,-27 75,-16 0,-22 -10,-42 -6,-61 9,-34 40,-113 55,-140 13,-22 38,-55 63,-66 26,-12 69,-25 99,-7l2 19c-35,7 -60,21 -72,54 -47,131 -23,87 14,123 -10,34 -15,29 -49,28l16 9 -13 17c14,10 8,16 3,31 -9,25 6,59 -19,100 -17,-4 -22,-18 -41,-21 4,24 10,15 20,35 -4,21 -32,58 -45,70 -21,20 -57,27 -67,48 6,18 25,22 38,48 8,15 15,41 20,59 34,127 54,295 92,398 46,126 80,260 95,398 3,24 6,47 9,72 3,28 1,56 22,60 12,-14 5,-41 2,-69 -2,-21 -4,-46 -4,-67 -2,-37 -6,-110 7,-137 36,10 104,215 117,256 36,4 50,-6 79,-14 -1,-30 -16,-62 -29,-81l-125 -193c-52,-85 -117,-169 -146,-274 -29,-108 -52,-235 -81,-340 -6,-22 -11,-72 -12,-97 -4,-54 4,-46 29,-75 80,-97 26,-93 48,-162 4,-12 11,-28 17,-37 48,-68 40,-125 69,-142 31,-19 70,-34 81,-74 12,-41 46,-246 33,-279 -9,-21 -256,-220 -283,-241 -95,-73 -122,-101 -222,-57 -16,7 -62,30 -73,31 -6,-154 -152,-79 -228,-25 -30,21 -38,37 -37,89 -31,-24 -22,-38 -73,-21 -40,12 -111,43 -118,90 -5,43 15,58 17,88 -17,-1 -10,2 -19,-12 -37,-57 -104,-30 -140,7 -21,22 -19,58 -36,88 -22,39 -44,19 -85,15 -54,-5 -67,6 -87,37 -13,18 -29,66 -43,75 -31,21 -139,73 -152,90 -17,22 -24,322 -16,350 10,38 286,241 328,273 21,15 54,35 70,52 22,25 63,0 87,-11 127,-54 86,-72 162,-36 55,27 118,49 155,87 37,39 29,132 55,186 40,85 67,181 91,276 8,33 18,59 22,96 10,89 36,245 24,333 -5,34 -15,72 -17,106l141 -20c-2,-58 -20,-139 -33,-189 -9,-29 -17,-55 -24,-88z"/>
   <path class="fil1" d="M1949 4384c-12,60 -78,84 -153,75 -81,-10 -104,-145 -10,-211 77,-54 184,38 163,136zm200 -336c28,-9 67,12 87,26 50,35 96,173 -45,197 -83,14 -129,-10 -132,-90 -3,-71 38,-116 90,-133zm570 63c0,-18 6,-23 21,-16l0 14 -21 2zm51 -63c5,25 -6,39 -31,28 -15,-7 -1,-24 6,-36 12,1 18,3 25,8zm-289 -165c26,-10 66,9 85,22 21,15 39,37 47,67 40,154 -146,148 -182,125 -59,-39 -57,-173 50,-214zm-1031 453c7,19 10,14 38,35l285 223c58,45 43,47 189,-36l282 -150c20,-10 29,-17 47,-26l611 -331c-10,-48 -253,-218 -315,-258 -60,-38 -70,-19 -154,18 -32,14 -22,13 -41,33 -26,25 -154,89 -199,93 -36,3 -23,4 -49,19l-190 101c-9,10 -13,35 -24,48 -27,35 -92,54 -132,43 -22,-6 -8,-13 -74,27 -81,51 -203,116 -274,161z"/>
   <path class="fil1" d="M2644 4283l0 20c-10,0 -14,-1 -20,-4 -2,-16 4,-16 20,-16zm252 -175c9,19 13,16 5,24 -13,12 -16,-4 -17,-14 -42,6 -217,111 -259,135 -170,96 -344,179 -516,272 -41,22 -88,46 -129,67l-65 34c-21,10 -43,24 -66,32 -3,44 -36,243 -18,268 19,15 60,-9 80,-18 24,-10 50,-24 74,-36 159,-80 456,-259 624,-367 37,-24 35,-12 52,-59 26,-71 27,-100 75,-147 48,-46 100,-56 161,-14 1,19 -9,38 -9,63 31,-14 33,-65 41,-107 8,-43 18,-101 15,-145 -20,0 -34,7 -48,12z"/>
   <path class="fil2" d="M5428 4669c27,8 23,-7 56,-3 65,9 19,-116 35,-153 17,5 3,-10 25,32 7,13 12,25 19,38 11,21 24,53 38,72 26,-1 31,-24 45,-62 16,-44 18,-67 40,-69 13,35 -10,48 4,135 17,5 82,18 87,-8l0 -99c0,-27 6,-48 5,-72 -1,-26 -7,-47 -7,-73 1,-52 6,-101 -3,-151 -129,-24 -76,-3 -137,131 -6,14 -18,40 -35,33 -5,-2 -30,-35 -33,-41 -5,-12 -10,-41 -16,-56 -25,-73 -19,-71 -59,-82 -17,-4 -55,-12 -62,6 -7,16 -10,395 -2,422z"/>
   <path class="fil1" d="M1664 4665c19,-1 24,4 16,20 -16,1 -19,-4 -16,-20zm113 245c5,-12 26,-216 25,-238 -74,-46 -322,-289 -369,-291 -6,70 -24,132 -24,206 1,58 21,58 72,101l225 176c16,13 48,46 71,46z"/>
   <path class="fil0" d="M5428 4669c-8,-27 -5,-406 2,-422 7,-18 45,-10 62,-6 40,11 34,9 59,82 6,15 11,44 16,56 3,6 28,39 33,41 17,7 29,-19 35,-33 61,-134 8,-155 137,-131 9,50 4,99 3,151 0,26 6,47 7,73 1,24 -5,45 -5,72l0 99c-5,26 -70,13 -87,8 -14,-87 9,-100 -4,-135 -22,2 -24,25 -40,69 -14,38 -19,61 -45,62 -14,-19 -27,-51 -38,-72 -7,-13 -12,-25 -19,-38 -22,-42 -8,-27 -25,-32 -16,37 30,162 -35,153 -33,-4 -29,11 -56,3zm-21 -384l0 344c0,22 -5,53 7,69 29,40 62,40 122,34 39,-3 22,-20 39,-41 27,14 23,32 68,32 20,0 37,-5 57,-1 15,3 34,12 48,14 23,3 18,-8 48,-7 32,1 26,-5 44,-17l1 -120c3,-16 7,-14 7,-36 -1,-26 -7,-52 -7,-84 0,-30 8,-181 -7,-206 -6,-9 -9,-15 -14,-25l-14 -27c-214,-13 -136,50 -193,93 -6,-15 -3,-21 -13,-32 -9,-10 -18,-13 -26,-25 -21,-31 -5,-34 -55,-43 -18,-4 -75,-5 -91,0 -29,9 -21,43 -21,78z"/>
   <path class="fil0" d="M3835 4234c3,4 1,-1 3,9l2 149c0,57 9,173 -21,222 -49,80 -79,51 -96,52 -16,1 -4,10 -26,9 -31,-1 1,-10 -29,-7 -34,4 -36,2 -59,-16 -63,-51 -53,-66 -53,-184 0,-28 -4,-216 6,-234 9,-19 36,-7 54,2 13,-7 8,-16 31,-8 9,23 -11,110 1,162 13,56 3,106 5,164 17,9 55,43 82,14 25,-26 3,-323 16,-336 0,0 67,-12 84,2zm-304 51l0 210c0,92 -12,138 34,201 13,18 21,11 36,22 17,13 -7,12 42,20 16,3 31,11 49,7 12,-3 10,-6 24,-7 11,-1 15,2 27,2 57,-1 111,-48 137,-99 26,-49 20,-288 20,-353 0,-39 1,-31 -19,-54 -10,-12 -23,-31 -39,-34 -13,-3 -56,-1 -73,-1 -30,0 -43,-5 -62,12 -23,19 -20,11 -44,-4 -19,-12 -40,-7 -66,-7 -60,2 -66,25 -66,85z"/>
   <path class="fil2" d="M5137 4446c-9,-41 -13,-66 -1,-110 35,-2 66,2 74,29 14,43 3,43 -6,81l-67 0zm154 228c15,-27 -84,-124 -36,-142 27,-10 16,2 33,-21 39,-54 26,-165 -3,-220 -10,-21 -5,-20 -25,-28 -34,-14 -47,-40 -133,-20 -27,6 13,-7 -39,-1 -17,1 -30,1 -48,4 -3,57 -12,400 1,431 23,3 52,6 60,-12 13,4 23,18 26,-2 3,-16 -4,-21 -5,-31 0,-11 7,-10 7,-34 0,-17 -1,-17 6,-29 17,6 25,29 34,49 9,21 19,38 28,56 22,-2 34,4 49,1 27,-5 29,9 45,-1z"/>
   <path class="fil2" d="M3835 4234c-17,-14 -84,-2 -84,-2 -13,13 9,310 -16,336 -27,29 -65,-5 -82,-14 -2,-58 8,-108 -5,-164 -12,-52 8,-139 -1,-162 -23,-8 -18,1 -31,8 -18,-9 -45,-21 -54,-2 -10,18 -6,206 -6,234 0,118 -10,133 53,184 23,18 25,20 59,16 30,-3 -2,6 29,7 22,1 10,-8 26,-9 17,-1 47,28 96,-52 30,-49 21,-165 21,-222l-2 -149c-2,-10 0,-5 -3,-9z"/>
   <path class="fil2" d="M6393 4239c-37,4 -2,8 -34,-5 -22,14 -25,19 -38,48 -39,91 -51,29 -70,3 -39,-52 -6,-64 -119,-44 0,18 10,41 20,55 4,5 73,147 70,163l-65 133c-7,14 -6,12 -14,24 -11,14 -22,32 -29,47 2,2 2,3 6,6 10,6 8,2 21,2 21,2 62,32 86,-17 9,-16 18,-37 26,-54 14,-29 0,-31 28,-46 16,18 17,16 27,45 32,94 51,79 144,77 -2,-24 -43,-88 -56,-111l-54 -107c-6,-18 43,-98 48,-108 17,-38 50,-71 55,-108 -16,-1 -38,-4 -52,-3z"/>
   <path class="fil2" d="M4115 4443c-25,3 -31,2 -54,-3 -5,-33 -5,-82 8,-107 17,-2 18,0 33,-4 12,15 25,17 27,47 2,24 -4,52 -14,67zm-152 219c22,19 59,17 93,6 14,-32 -7,-105 12,-129 21,-5 17,0 32,0 12,1 14,-5 14,-5l7 -6c1,0 2,0 3,1l13 11c37,-30 25,9 54,-17 26,-25 40,-58 36,-96 -3,-26 -1,-20 3,-37 3,-15 0,-69 -4,-85 -5,-26 -62,-74 -108,-70 -16,2 -20,8 -37,5 -19,-3 -14,-6 -39,-3 -89,13 -36,3 -70,-1 -19,42 -12,359 -9,426z"/>
   <path class="fil2" d="M4422 4438c-6,-16 -5,-70 0,-90 5,-19 8,-15 25,-16 15,-2 17,-6 28,8 16,19 17,50 10,80 -3,13 -5,22 -20,24 -16,3 -33,1 -43,-6zm-92 -201c-9,49 -17,396 -4,428 21,18 64,10 93,3 0,-30 -2,-114 9,-129 23,-4 29,5 41,-2 21,-11 -15,12 5,-3l4 -4c1,-1 2,-2 3,-3 6,4 2,2 7,6 4,3 4,4 8,7 46,-29 27,8 55,-17 50,-45 33,-105 38,-132 3,-17 1,-68 -3,-86 -5,-25 -60,-73 -105,-70 -18,1 -20,7 -34,6 -35,-2 -17,-9 -81,1 -32,5 -6,-2 -36,-5z"/>
   <path class="fil2" d="M4898 4338c9,-24 16,-58 11,-88 -3,-22 -8,-19 -24,-12 -31,13 -1,-4 -32,-2 -14,1 -4,6 -22,1 -6,-2 -7,-6 -14,-7 -13,0 -4,9 -35,2 -17,-4 -78,-3 -90,4 -7,13 -8,97 -4,117 10,46 -1,55 -4,101 -2,39 -2,78 -3,118 -1,32 -8,88 9,108 28,16 66,-36 87,4 50,-12 22,7 57,-4 40,-14 16,12 49,0 20,-7 21,-22 18,-45 -3,-27 2,-40 -9,-58 -13,-1 -11,1 -18,9 -15,-9 0,-7 -18,-8 -12,0 -10,3 -23,3l-45 -4c-13,-16 -21,-42 -5,-64 32,-9 72,9 106,-11 14,-20 21,-74 8,-94 -21,-3 -27,4 -38,11 -19,-11 -12,-11 -39,-9 -66,6 -42,-43 -23,-77 8,1 4,2 12,2l29 0c3,0 8,2 15,3 20,-32 21,-3 45,0z"/>
   <path class="fil2" d="M3353 4659c17,4 17,15 39,2 17,-9 43,-36 49,-54 4,-12 10,-26 13,-37 20,-73 -46,-124 -97,-156 -11,-7 -15,-10 -32,-18 -52,-27 -48,-84 10,-62 11,5 5,8 29,19 1,1 2,1 3,1 1,1 2,1 2,2 27,15 19,11 83,10 3,-59 -5,-103 -64,-121 -26,-8 5,-12 -43,-16 -37,-2 -33,-11 -54,13 -23,-14 -26,-11 -47,7 -13,11 -24,20 -34,35 -22,35 -17,74 -3,111 21,57 36,58 65,74 12,7 28,20 40,29l40 24c9,35 12,27 -9,50 -13,1 -35,-3 -43,-9 -10,-6 -13,-18 -20,-25 -10,4 -8,5 -19,11 -9,-7 -6,-19 -43,-9l-12 4c-1,-1 -2,1 -3,1 -12,27 4,40 12,58 31,73 39,32 83,61 29,18 34,4 55,-5z"/>
   <path class="fil0" d="M6132 4241c113,-20 80,-8 119,44 19,26 31,88 70,-3 13,-29 16,-34 38,-48 32,13 -3,9 34,5 14,-1 36,2 52,3 -5,37 -38,70 -55,108 -5,10 -54,90 -48,108l54 107c13,23 54,87 56,111 -93,2 -112,17 -144,-77 -10,-29 -11,-27 -27,-45 -28,15 -14,17 -28,46 -8,17 -17,38 -26,54 -24,49 -65,19 -86,17 -13,0 -11,4 -21,-2 -4,-3 -4,-4 -6,-6 7,-15 18,-33 29,-47 8,-12 7,-10 14,-24l65 -133c3,-16 -66,-158 -70,-163 -10,-14 -20,-37 -20,-55zm-29 -18c0,21 36,87 47,110 12,27 45,85 50,108 -16,21 -30,100 -57,122 -31,26 -17,19 -30,57 -11,33 -60,63 19,110 27,16 43,4 78,6 70,4 35,-49 87,-92 19,11 19,22 29,43 3,6 29,42 33,45 16,11 123,7 143,2 11,-28 -2,-47 -15,-69 -29,-52 -15,-38 -26,-69 -5,-16 -68,-91 -67,-124 0,-28 44,-74 51,-90 6,-16 6,-20 15,-35 46,-84 60,-79 42,-128 -21,-4 -41,-7 -63,-9 -30,-2 -39,6 -66,2 -45,-7 -45,27 -72,53l-11 9c-31,-29 -10,-65 -69,-65 -22,0 -39,2 -61,3 -29,0 -39,-4 -57,11z"/>
   <path class="fil0" d="M4898 4338c-24,-3 -25,-32 -45,0 -7,-1 -12,-3 -15,-3l-29 0c-8,0 -4,-1 -12,-2 -19,34 -43,83 23,77 27,-2 20,-2 39,9 11,-7 17,-14 38,-11 13,20 6,74 -8,94 -34,20 -74,2 -106,11 -16,22 -8,48 5,64l45 4c13,0 11,-3 23,-3 18,1 3,-1 18,8 7,-8 5,-10 18,-9 11,18 6,31 9,58 3,23 2,38 -18,45 -33,12 -9,-14 -49,0 -35,11 -7,-8 -57,4 -21,-40 -59,12 -87,-4 -17,-20 -10,-76 -9,-108 1,-40 1,-79 3,-118 3,-46 14,-55 4,-101 -4,-20 -3,-104 4,-117 12,-7 73,-8 90,-4 31,7 22,-2 35,-2 7,1 8,5 14,7 18,5 8,0 22,-1 31,-2 1,15 32,2 16,-7 21,-10 24,12 5,30 -2,64 -11,88zm-233 35l1 335c2,7 9,15 14,20 7,9 7,11 23,11l191 0c58,0 62,-36 57,-88 -3,-28 14,-37 2,-63 -6,-13 -12,-8 -4,-29 6,-15 8,-4 8,-30l0 -84c0,-34 -8,-17 -11,-38 -1,-13 8,-29 8,-30 11,-30 6,-116 -1,-151 -7,-33 -14,-27 -45,-23 -20,4 -14,-1 -30,-2 -16,-1 -21,4 -34,4 -10,-1 -18,-6 -30,-5 -14,1 -19,6 -32,8 -33,5 -98,-21 -114,23 -6,17 -3,114 -3,142z"/>
   <path class="fil0" d="M3353 4659c-21,9 -26,23 -55,5 -44,-29 -52,12 -83,-61 -8,-18 -24,-31 -12,-58 1,0 2,-2 3,-1l12 -4c37,-10 34,2 43,9 11,-6 9,-7 19,-11 7,7 10,19 20,25 8,6 30,10 43,9 21,-23 18,-15 9,-50l-40 -24c-12,-9 -28,-22 -40,-29 -29,-16 -44,-17 -65,-74 -14,-37 -19,-76 3,-111 10,-15 21,-24 34,-35 21,-18 24,-21 47,-7 21,-24 17,-15 54,-13 48,4 17,8 43,16 59,18 67,62 64,121 -64,1 -56,5 -83,-10 0,-1 -1,-1 -2,-2 -1,0 -2,0 -3,-1 -24,-11 -18,-14 -29,-19 -58,-22 -62,35 -10,62 17,8 21,11 32,18 51,32 117,83 97,156 -3,11 -9,25 -13,37 -6,18 -32,45 -49,54 -22,13 -22,2 -39,-2zm-111 -156c-13,1 -24,-1 -35,0 -13,1 -16,6 -27,11 -8,95 9,131 60,174 21,17 45,34 78,40 85,15 122,11 166,-64 85,-146 -37,-195 -52,-239 43,-5 77,24 78,-37 3,-90 -30,-127 -88,-166 -22,-15 -13,-12 -46,-15 -19,-1 -38,-5 -58,-7 -38,-3 -74,11 -96,27 -28,21 -36,43 -42,85 -7,56 11,137 44,173 8,9 11,7 18,18z"/>
   <path class="fil0" d="M5291 4674c-16,10 -18,-4 -45,1 -15,3 -27,-3 -49,-1 -9,-18 -19,-35 -28,-56 -9,-20 -17,-43 -34,-49 -7,12 -6,12 -6,29 0,24 -7,23 -7,34 1,10 8,15 5,31 -3,20 -13,6 -26,2 -8,18 -37,15 -60,12 -13,-31 -4,-374 -1,-431 18,-3 31,-3 48,-4 52,-6 12,7 39,1 86,-20 99,6 133,20 20,8 15,7 25,28 29,55 42,166 3,220 -17,23 -6,11 -33,21 -48,18 51,115 36,142zm-277 -401l0 360c0,22 -2,51 8,67 3,5 38,36 42,38 16,7 56,4 74,2 44,-6 34,-3 46,-35 17,8 19,17 33,25 16,10 87,4 117,5 30,2 21,15 45,0 2,-28 -51,-117 -63,-149 -13,-34 39,-34 42,-110 1,-25 7,-35 7,-57 0,-36 -5,-86 -19,-113 -22,-43 -7,-15 -19,-46 -17,-45 -101,-58 -145,-54 -40,4 -92,-3 -146,-1 -17,22 -22,28 -22,68z"/>
   <path class="fil0" d="M3963 4662c-3,-67 -10,-384 9,-426 34,4 -19,14 70,1 25,-3 20,0 39,3 17,3 21,-3 37,-5 46,-4 103,44 108,70 4,16 7,70 4,85 -4,17 -6,11 -3,37 4,38 -10,71 -36,96 -29,26 -17,-13 -54,17l-13 -11c-1,-1 -2,-1 -3,-1l-7 6c0,0 -2,6 -14,5 -15,0 -11,-5 -32,0 -19,24 2,97 -12,129 -34,11 -71,13 -93,-6zm148 68c10,-28 -1,-70 8,-100 17,-57 97,-32 132,-89 34,-53 32,-134 32,-192 -1,-54 -50,-103 -91,-132 -34,-23 -191,-34 -237,-8 -18,10 -16,17 -16,41 0,66 -5,399 7,435 9,28 29,47 61,52 20,2 90,-1 104,-7z"/>
   <path class="fil0" d="M4330 4237c30,3 4,10 36,5 64,-10 46,-3 81,-1 14,1 16,-5 34,-6 45,-3 100,45 105,70 4,18 6,69 3,86 -5,27 12,87 -38,132 -28,25 -9,-12 -55,17 -4,-3 -4,-4 -8,-7 -5,-4 -1,-2 -7,-6 -1,1 -2,2 -3,3l-4 4c-20,15 16,-8 -5,3 -12,7 -18,-2 -41,2 -11,15 -9,99 -9,129 -29,7 -72,15 -93,-3 -13,-32 -5,-379 4,-428zm-30 -18c-4,112 0,232 0,345 0,52 -6,120 22,151 26,27 106,28 150,16 10,-34 -6,-89 14,-116 18,-25 58,-28 90,-44 37,-18 40,-37 53,-81 15,-47 13,-66 13,-121 0,-56 -9,-64 -34,-101 -11,-15 -54,-55 -74,-59 -40,-9 -80,-14 -122,-14 -23,-1 -40,1 -61,4 -29,4 -33,8 -51,20z"/>
   <path class="fil0" d="M5925 4662c-15,-133 -9,-110 -1,-236 0,-7 -20,-119 -6,-176 5,-18 18,-20 39,-22 57,-6 57,18 56,68 0,78 9,332 -1,368 -16,6 -31,3 -49,4 -21,0 -5,-2 -19,-7 -17,-6 -3,0 -19,1zm-30 -251l1 291c61,38 46,38 156,33 11,-15 16,-22 16,-49l0 -348c0,-55 5,-72 -23,-107 -25,-32 -17,-35 -100,-34 -23,0 -35,1 -42,22 -5,15 -7,40 -8,58 -1,44 0,90 0,134z"/>
   <path class="fil2" d="M5925 4662c16,-1 2,-7 19,-1 14,5 -2,7 19,7 18,-1 33,2 49,-4 10,-36 1,-290 1,-368 1,-50 1,-74 -56,-68 -21,2 -34,4 -39,22 -14,57 6,169 6,176 -8,126 -14,103 1,236z"/>
   <path class="fil0" d="M5445 5000c21,-28 51,-62 91,-64 -4,15 -12,21 -21,35 -19,29 -22,21 -15,27 10,8 46,5 61,4 19,-25 42,-60 90,-65 -7,25 -18,15 -17,50 29,18 52,16 94,13 6,-13 12,-16 15,-31l-40 -2c3,-22 17,-14 13,-47 -33,-45 -102,-2 -127,-11 -38,-13 -29,-7 -68,-6 -23,0 -46,-5 -76,-3 -12,15 -57,83 -59,101l59 -1z"/>
   <path class="fil0" d="M1820 4262c16,-9 83,21 86,57 13,163 -149,69 -151,30 -2,-33 46,-75 65,-87zm129 122c21,-98 -86,-190 -163,-136 -94,66 -71,201 10,211 75,9 141,-15 153,-75z"/>
   <path class="fil0" d="M2487 3912c16,-7 83,16 86,59 10,160 -149,67 -150,27 -2,-32 45,-78 64,-86zm-6 -29c-107,41 -109,175 -50,214 36,23 222,29 182,-125 -8,-30 -26,-52 -47,-67 -19,-13 -59,-32 -85,-22z"/>
   <path class="fil0" d="M2496 5441c-35,-101 -14,-46 -53,-117 -6,-12 -9,-29 -15,-39 12,78 39,118 47,161 7,30 8,63 13,95 11,68 2,36 27,75 12,20 14,63 17,91 5,38 14,50 26,79 21,51 45,98 63,148 17,2 50,-2 64,-12 -12,-51 -64,-101 -85,-143 -18,-35 -86,-284 -104,-338z"/>
   <path class="fil0" d="M2239 4155c0,51 -20,84 -75,67 -163,-51 -13,-148 -1,-148 13,0 45,20 52,25 23,16 24,18 24,56zm-90 -107c-52,17 -93,62 -90,133 3,80 49,104 132,90 141,-24 95,-162 45,-197 -20,-14 -59,-35 -87,-26z"/>
   <path class="fil0" d="M2534 5058c-16,-2 -20,-10 -37,-11 -1,26 37,60 48,91 35,98 51,240 84,330l71 208c14,38 45,94 65,141 4,8 7,17 10,25 2,3 4,10 7,13 9,11 -2,2 10,8 1,-41 -51,-164 -67,-200 -25,-56 -61,-131 -69,-192l-53 -208c-7,-35 -17,-67 -23,-105 -3,-19 -8,-37 -11,-55 -5,-35 9,-30 7,-56 -20,2 -19,12 -42,11z"/>
   <path class="fil0" d="M2562 5522c0,-49 -23,-120 -33,-163 -13,-55 -14,-44 -10,-84 1,-15 -16,-56 -21,-75 -15,-46 -29,-104 -38,-157 -3,-22 -13,-64 -14,-85 -1,-13 7,-31 -5,-35 -11,-4 -22,9 -26,15 -45,62 -16,72 8,135 17,47 32,100 46,149 22,77 59,191 78,267 4,18 3,25 15,33z"/>
   <path class="fil0" d="M5938 4968c13,-20 53,-10 53,-52 -45,-46 -198,-10 -199,62 32,33 70,24 138,24 51,0 68,6 75,-34l-67 0z"/>
   <path class="fil0" d="M3360 4969c7,-13 88,-37 38,-64 -29,-16 -76,-9 -107,-1 -65,18 -136,97 0,97l121 0c7,-15 11,-14 15,-33l-67 1z"/>
   <path class="fil1" d="M2239 4155c0,-38 -1,-40 -24,-56 -7,-5 -39,-25 -52,-25 -12,0 -162,97 1,148 55,17 75,-16 75,-67z"/>
   <path class="fil1" d="M1820 4262c-19,12 -67,54 -65,87 2,39 164,133 151,-30 -3,-36 -70,-66 -86,-57z"/>
   <path class="fil0" d="M4095 4966c27,-17 54,-13 54,-52 -70,-48 -220,11 -194,68 14,23 56,19 90,19 33,1 71,2 105,0 5,-11 11,-18 14,-32 -21,-1 -52,4 -69,-3z"/>
   <path class="fil1" d="M2487 3912c-19,8 -66,54 -64,86 1,40 160,133 150,-27 -3,-43 -70,-66 -86,-59z"/>
   <path class="fil0" d="M2697 5157c1,-37 -13,-63 -21,-95 -16,-62 -27,-143 -103,-119 7,24 -9,9 29,35 10,8 21,16 27,31 25,62 30,128 33,194 2,34 24,49 36,80 26,66 66,232 86,315l12 31c4,6 2,3 7,7 -2,-48 -34,-140 -46,-189 -17,-64 -26,-129 -46,-187 -16,-45 -14,-51 -14,-103z"/>
   <path class="fil0" d="M6112 5001c16,-26 54,-68 91,-63 -7,13 -19,20 -19,43 9,27 73,20 92,20 8,-10 14,-16 18,-32l-39 -3 7 -20c31,-59 -78,-43 -92,-45 -20,-3 -41,-2 -61,-1 -13,25 -55,78 -60,101l63 0z"/>
   <path class="fil0" d="M5152 5001c12,-19 16,-28 37,-42 13,-9 34,-21 52,-23 -6,22 -20,21 -17,48 19,23 57,17 93,17 7,-10 14,-15 17,-32l-41 -1c1,-11 44,-63 -28,-67l-116 -1c-14,27 -54,72 -58,102l61 -1z"/>
   <path class="fil0" d="M3534 5001c18,-30 50,-61 89,-65 -6,23 -18,16 -16,51 26,17 54,17 94,13 7,-13 12,-17 15,-31 -21,-1 -45,6 -39,-11 6,-15 18,-16 10,-39 -12,-22 -51,-19 -73,-17 -26,2 -55,-7 -80,0 -10,7 -60,84 -64,99l64 0z"/>
   <path class="fil0" d="M4717 4970c3,-14 -3,-5 10,-15 26,-21 94,-23 127,-23l-1 -32c-56,1 -126,6 -174,34 -17,11 -28,17 -27,45 31,27 56,28 102,21 27,-4 84,2 118,1 6,-11 12,-17 15,-32l-60 -2c6,-18 22,-17 -9,-23 -10,-2 -32,-4 -42,-4 -7,23 -28,31 -59,30z"/>
   <path class="fil1" d="M2291 3746c38,-12 74,42 51,63 -14,13 -140,66 -154,30 -3,-9 3,-41 11,-50 12,-12 70,-36 92,-43zm3 -21c-71,12 -55,29 -99,52 -13,7 -22,11 -27,23 -10,22 5,57 14,76 17,39 18,36 58,23 67,-22 42,-28 94,-56 14,-8 44,-37 42,-54 0,-7 -3,-40 -5,-47 -4,-26 -51,-21 -77,-17z"/>
   <path class="fil0" d="M4211 4941c12,2 38,9 51,6 19,-6 8,-16 38,-14 -9,15 -49,41 0,61 27,10 65,9 97,6 7,-14 12,-14 15,-31l-71 -1c4,-12 18,-18 29,-25 17,-10 23,-11 47,-11l-1 -32c-31,-2 -65,0 -96,0 -27,-1 -51,-13 -80,-14 -9,12 -26,33 -29,55z"/>
   <path class="fil2" d="M1685 5601c3,-14 6,-17 20,-19 -2,16 -3,18 -20,19zm61 -88c-20,-1 -18,0 -23,19 -9,27 -5,26 -19,31 -10,3 -17,2 -26,12 -15,17 1,19 -20,27l-2 -11c1,-12 21,-54 23,-78 -20,0 -16,-2 -22,18 -3,8 -6,18 -8,26 -15,46 -8,42 -25,45 -4,-6 -6,-4 -1,-21 2,-10 3,-2 3,-17 -36,-2 -9,28 -37,38l2 -19c2,-9 4,-9 4,-19l-16 0c-6,13 -8,26 -15,37 -12,-12 0,-15 1,-37 -26,-1 -6,4 -25,5 -10,1 -15,-2 -27,-4 1,25 9,29 -12,37 -4,-6 -5,-8 0,-24 6,-18 18,-48 20,-65 -23,0 -16,-1 -32,46 -8,26 -16,35 -5,59 27,6 35,0 46,-20 14,-25 6,0 13,19 26,8 67,2 89,0 1,0 2,0 3,0 1,0 2,1 3,1 33,3 20,-1 30,-3 0,0 1,0 2,0 12,0 -3,0 9,3 20,5 13,0 29,0 13,0 19,9 25,-4 9,-19 -2,-3 -12,-17l25 -84z"/>
   <path class="fil0" d="M3884 4897c2,-16 5,-5 9,-26 -12,0 -20,-1 -31,-3 -33,-5 -30,1 -48,31l-35 1c-6,10 -11,15 -17,27l6 3c0,0 2,0 3,1l6 1c8,2 2,-2 11,3 -9,23 -21,24 -19,51 28,21 82,18 119,15 8,-11 14,-20 16,-33l-65 0c1,-13 13,-26 19,-36l33 -1 17 -27c-1,0 -2,-1 -3,-1l-21 -6z"/>
   <path class="fil0" d="M4584 4897c3,-15 5,-8 9,-25l-58 -6 -21 33 -37 2c-5,10 -12,16 -15,30 13,1 17,-1 26,4 -6,25 -21,19 -19,51 18,13 23,15 54,15 54,1 71,9 81,-33l-66 0c3,-15 14,-25 20,-36l34 -1c6,-8 12,-16 16,-27l-24 -7z"/>
   <path class="fil0" d="M6460 4897c7,-14 7,-7 11,-24l-57 -8c-7,10 -16,23 -21,33 -32,6 -39,-7 -49,26 1,0 3,1 4,2l20 7c-8,22 -23,23 -22,54 26,13 30,15 66,15 49,0 62,5 69,-33l-67 -2c13,-43 39,-37 55,-37 10,-22 9,-3 15,-29l-24 -4z"/>
   <path class="fil2" d="M1993 5392c3,-9 7,-13 17,-17 3,-1 13,-4 14,-5 10,-6 4,2 8,-10 -8,-6 6,-4 -14,-5 -13,-1 -17,8 -36,10l-10 -13c-19,-11 -25,17 -33,26 0,-14 3,-16 -2,-25 -21,1 -14,7 -21,28l-9 -27c-20,3 -10,-7 -17,31l-2 6c-10,-3 -9,-11 -20,-15l6 -3c5,-3 10,-1 10,-17 -23,-10 -66,14 -52,52 28,8 55,-4 68,-2l4 1c17,1 6,-6 23,-2 9,2 -8,1 10,4 11,-9 24,-26 35,-30l3 15c10,36 54,4 81,14l6 3c1,0 2,2 3,1 0,-1 2,1 2,1 -11,43 -25,12 -23,47 45,-3 39,-53 46,-75 4,-14 7,-13 11,-32 -22,2 -17,-2 -26,18 -6,14 -5,16 -18,19l9 -37c-37,-1 -14,45 -35,38 -9,-3 -4,-8 -13,-14 -16,6 -9,14 -25,15z"/>
   <path class="fil0" d="M5137 4446l67 0c9,-38 20,-38 6,-81 -8,-27 -39,-31 -74,-29 -12,44 -8,69 1,110z"/>
   <path class="fil0" d="M2211 3812c29,-12 78,1 97,-25 13,-18 1,-19 16,-23 15,11 14,33 14,33 -9,7 -55,25 -69,31 -21,10 -63,18 -58,-16zm80 -66c-22,7 -80,31 -92,43 -8,9 -14,41 -11,50 14,36 140,-17 154,-30 23,-21 -13,-75 -51,-63z"/>
   <path class="fil3" d="M1974 3904c-6,4 -3,-9 -5,10 -1,14 1,10 4,14l1 -24c10,-2 6,0 9,2 -6,13 -6,31 -6,37 3,-13 2,-5 -5,-8 2,14 0,6 5,8 -1,11 -4,6 4,11 1,14 -4,7 5,10 -1,7 -3,6 3,4 3,16 3,15 14,24 6,-1 2,1 7,-2 8,-4 2,-1 6,-5 15,3 7,2 9,-3 16,1 6,0 9,-3 6,-1 -1,3 9,-2 8,-4 5,-2 9,-8 -12,3 -11,2 -18,10 -17,-3 -7,-1 -9,3 -18,-3 -6,-1 -9,3 -15,-2 -7,2 -15,-4 -6,-5 0,0 -6,-6 -5,-6 0,-3 -6,-7 2,-6 4,-5 -3,-4 -1,-19 -2,-6 -5,-10l1 -8c28,13 39,1 67,-8 29,-8 42,-14 60,-28 3,-50 -17,-39 -30,-62l46 1 0 8c-4,2 -4,-5 -3,8 -3,2 -6,-7 -6,14 0,14 10,17 12,35l-22 22c-13,1 -5,-1 -7,5 -7,-2 -7,-5 -6,2 -8,-2 -7,-5 -5,3 -7,-2 -6,-4 -4,3 -12,-1 -3,-1 -6,7 12,-3 6,0 6,-7 7,2 6,4 4,-3 7,2 7,4 5,-3 8,2 8,5 6,-2 13,-1 5,1 7,-5 13,-3 25,-10 25,-26 0,-15 -9,-15 -9,-45 4,-3 6,8 3,-8 8,-15 0,-8 0,-8 -3,-2 -1,-2 -9,-4 -6,-1 -7,-1 -14,-1 -9,0 -16,2 -23,4 -17,0 -39,6 -54,16 -11,7 -17,14 -19,24l0 10c25,6 41,-4 59,-13 1,-20 -4,-15 -14,-25l28 -6c6,29 2,42 -21,49 -8,3 -19,5 -28,6 -17,1 -21,-2 -34,8 6,18 4,6 12,19 6,10 -2,-11 5,10 -54,1 -22,-24 -24,-49 -7,0 -9,-2 -15,7z"/>
   <path class="fil0" d="M4994 4968c1,-18 30,-44 35,-69l-65 1c-11,29 -42,52 -40,86 21,14 73,24 106,12 8,-7 14,-16 17,-29l-53 -1z"/>
   <path class="fil0" d="M4422 4438c10,7 27,9 43,6 15,-2 17,-11 20,-24 7,-30 6,-61 -10,-80 -11,-14 -13,-10 -28,-8 -17,1 -20,-3 -25,16 -5,20 -6,74 0,90z"/>
   <path class="fil1" d="M1898 3984c14,13 39,59 9,79 -13,9 -65,35 -81,36 -25,1 -24,-13 -20,-36 4,-20 4,-30 17,-42 15,-13 54,-40 75,-37zm-14 -6c-43,12 -69,30 -78,70 -5,20 -20,38 -8,59 12,20 20,27 51,23 46,-6 67,-29 80,-68 20,-63 5,-61 -19,-78 -13,-10 -9,-11 -26,-6z"/>
   <path class="fil0" d="M4115 4443c10,-15 16,-43 14,-67 -2,-30 -15,-32 -27,-47 -15,4 -16,2 -33,4 -13,25 -13,74 -8,107 23,5 29,6 54,3z"/>
   <path class="fil2" d="M1809 5591c-9,-10 -5,-13 -3,-27 -36,-4 -21,40 -13,55 14,1 12,-1 20,-9 12,8 -3,3 14,10 25,-11 22,-31 43,-29 -2,14 -8,23 7,29 18,7 21,-2 25,-11 10,16 27,19 39,4 -5,-21 5,-3 -17,-12 6,-30 11,-11 16,-28 4,-12 -3,-24 -10,-29 -16,6 -1,0 -17,18l-7 7c-9,19 11,5 -4,35l-14 -2 7 -39c-14,1 -14,4 -23,9 -7,-8 -15,-16 -26,-6 -11,8 -5,14 -11,27 -7,-9 -2,-16 -2,-29 -25,-1 -18,5 -24,27z"/>
   <path class="fil2" d="M1593 5383c-7,-10 -2,-16 -1,-30 -27,-1 -10,3 -25,14 -11,-8 -20,-23 -42,-11 -14,8 -18,25 -11,45 36,24 39,-3 55,-16l12 25c13,-3 14,-7 18,-8 14,-2 10,20 39,-12 16,-18 5,-5 24,-14l-2 -11c0,-1 0,-2 -1,-3l-5 -7c-3,-2 -8,-7 -17,-3 -17,7 -4,15 -20,32l2 -31c-26,0 -15,7 -26,30z"/>
   <path class="fil1" d="M1981 3954c3,4 4,-9 5,10 7,-1 5,-2 3,4 6,4 1,1 6,7 6,6 0,1 6,6 8,6 0,2 15,4 3,-4 -9,-6 9,-3 2,-4 -8,-6 9,-3 7,-8 6,-7 18,-10 9,-2 19,-6 26,-13 3,-8 -6,-8 6,-7 -2,-7 -3,-5 4,-3 -2,-8 -3,-5 5,-3 -1,-7 -1,-4 6,-2 2,-6 -6,-4 7,-5l22 -22c-2,-18 -12,-21 -12,-35 0,-21 3,-12 6,-14 -1,-13 -1,-6 3,-8l0 -8 -46 -1c13,23 33,12 30,62 -18,14 -31,20 -60,28 -28,9 -39,21 -67,8l-1 8zm-7 -50l-1 24 -1 7c7,3 8,-5 5,8 0,-6 0,-24 6,-37 -3,-2 1,-4 -9,-2z"/>
   <path class="fil2" d="M1368 5577c-14,-5 -24,-23 -45,-10 -38,21 0,80 33,41 21,-25 5,-7 38,-25 -3,16 -10,26 6,35 16,10 25,3 27,-15l-19 -1c11,-30 21,-8 20,-36 -2,-1 -41,-7 -50,-9 -4,14 -1,13 -10,20z"/>
   <path class="fil1" d="M2810 4419c9,5 7,2 16,6 12,5 2,2 14,7 6,-23 28,-73 26,-93 -28,-4 -32,3 -46,22 -15,20 -13,28 -10,58z"/>
   <path class="fil2" d="M1430 5302c-19,1 -16,-1 -22,18 -7,23 -25,73 -26,90 37,-2 6,-19 40,-35 -2,16 -10,34 11,35 10,1 15,-1 14,-11 -4,-30 -7,28 -8,-43l-22 -4 13 -50z"/>
   <path class="fil2" d="M1339 5410c18,-1 14,0 20,-22 21,-83 12,-51 43,-67 0,-7 7,-14 -31,-23l-5 6c-8,9 -9,8 -25,10 -40,4 -28,3 -33,11 3,5 0,11 24,8 9,-1 14,-2 23,-3 -2,25 -24,60 -16,80z"/>
   <path class="fil2" d="M1995 5513c-20,0 -18,2 -23,19l-28 89c25,-1 14,3 24,-16 5,-11 8,-16 19,-20 -2,10 -8,20 -2,29 7,13 23,4 23,4 11,-28 2,-7 -5,-19l2 -27 -23 -13 13 -46z"/>
   <path class="fil1" d="M2211 3812c-5,34 37,26 58,16 14,-6 60,-24 69,-31 0,0 1,-22 -14,-33 -15,4 -3,5 -16,23 -19,26 -68,13 -97,25z"/>
   <path class="fil2" d="M2118 5597c8,-26 15,-7 16,-27 1,-10 -3,-21 -13,-25 -15,6 -1,1 -11,14 -5,6 -9,6 -14,13 -2,6 21,25 -9,30 -10,-15 3,-15 2,-38 -20,-1 -17,1 -23,20 -4,13 -10,21 -1,30 14,15 23,6 33,-3 9,14 22,14 34,5 3,-35 -3,2 -14,-19z"/>
   <path class="fil2" d="M1733 5354l-17 -1c-6,16 -16,35 -10,54 18,5 24,8 31,-7l8 10c20,0 19,2 29,-4 2,-38 -5,2 -15,-20 9,-26 21,-9 16,-35 -4,-18 -2,-12 -10,-17 -18,5 2,-1 -20,20 -16,16 3,8 -3,28 -4,15 -3,9 -20,9l11 -37z"/>
   <path class="fil1" d="M1601 4191l99 -55c-10,-18 -43,-35 -64,-4 -11,17 -44,26 -35,59z"/>
   <path class="fil0" d="M5002 4835c-56,19 1,50 43,37 46,-14 4,-53 -43,-37z"/>
   <path class="fil1" d="M1822 4055l3 24c30,10 41,-8 89,-35l-7 -36 -11 21c-12,27 -36,24 -74,26z"/>
   <path class="fil2" d="M1494 5410c15,-2 3,2 11,-7 -4,-21 8,-4 -18,-13 11,-23 16,-7 21,-30l-52 -12c-5,23 -8,17 0,29 15,6 5,1 18,-5 -4,11 -9,25 1,34 3,3 12,5 19,4z"/>
   <path class="fil4" d="M2224 5467c-11,13 -1,95 0,98 15,-2 10,2 12,-45 0,-22 5,-42 -4,-53l-8 0z"/>
   <path class="fil0" d="M2770 4048c-7,-5 -13,-7 -25,-8 -7,12 -21,29 -6,36 25,11 36,-3 31,-28z"/>
   <path class="fil1" d="M1833 4037c24,5 58,-14 49,-30 -7,-14 -30,6 -39,14 -15,13 -6,0 -10,16z"/>
   <path class="fil4" d="M2228 5584c-17,1 -17,14 -13,28l27 -1c4,-15 5,-27 -14,-27z"/>
   <path class="fil2" d="M1908 5536c-9,-14 -26,-15 -24,3 2,15 19,14 24,-3z"/>
   <path class="fil2" d="M1614 5536c6,9 -6,8 14,13 23,-15 -2,-36 -14,-13z"/>
   <path class="fil2" d="M1722 5335c11,6 18,2 22,-10 -13,-17 -27,-13 -22,10z"/>
   <path class="fil0" d="M2624 4299c6,3 10,4 20,4l0 -20c-16,0 -22,0 -20,16z"/>
   <path class="fil2" d="M2084 5528c-1,-1 -3,1 -5,1l2 17c1,0 1,5 16,0 2,-7 4,-7 0,-17l-13 -1z"/>
   <path class="fil0" d="M1680 4685c8,-16 3,-21 -16,-20 -3,16 0,21 16,20z"/>
   <path class="fil0" d="M2719 4111l21 -2 0 -14c-15,-7 -21,-2 -21,16z"/>
   <path class="fil1" d="M1685 5601c17,-1 18,-3 20,-19 -14,2 -17,5 -20,19z"/>
  </g>
 </g>
</svg>
